<svg xmlns="http://www.w3.org/2000/svg" width="40" height="44" viewBox="0 0 40 44" fill="none">
    <path d="M12 0H10C8.89543 0 8 0.89543 8 2V8C8 9.10457 8.89543 10 10 10H12C13.1046 10 14 9.10457 14 8V2C14 0.89543 13.1046 0 12 0Z" fill="#02B9FC"/>
    <path d="M30 0H28C26.8954 0 26 0.89543 26 2V8C26 9.10457 26.8954 10 28 10H30C31.1046 10 32 9.10457 32 8V2C32 0.89543 31.1046 0 30 0Z" fill="#02B9FC"/>
    <path d="M0 40C0 42.2092 1.79086 44 4 44H36C38.2092 44 40 42.2092 40 40V16H0V40Z" fill="url(#paint0_linear_2527_740)"/>
    <path d="M0 16H40V8C40 5.79086 38.2092 4 36 4H4C1.79086 4 0 5.79086 0 8V16Z" fill="#02B9FC"/>
    <path d="M13.4142 24.9494L19.2324 30.7676L17.8182 32.1818L16.404 30.7676L26.5858 20.5858L29.4142 23.4142L19.2324 33.596C19.1395 33.6889 19.0385 33.7718 18.9293 33.8448C18.8201 33.9177 18.7049 33.9793 18.5835 34.0296C18.4622 34.0798 18.3372 34.1178 18.2084 34.1434C18.0796 34.169 17.9495 34.1818 17.8182 34.1818C17.6869 34.1818 17.5568 34.169 17.428 34.1434C17.2992 34.1178 17.1741 34.0798 17.0528 34.0296C16.9315 33.9793 16.8162 33.9177 16.707 33.8448C16.5979 33.7718 16.4968 33.6889 16.404 33.596L10.5858 27.7779L13.4142 24.9494ZM14 26.3636C14 26.495 13.9872 26.625 13.9616 26.7538C13.936 26.8826 13.898 27.0077 13.8478 27.129C13.7975 27.2503 13.7359 27.3656 13.6629 27.4748C13.59 27.584 13.5071 27.685 13.4142 27.7778C13.3214 27.8707 13.2203 27.9536 13.1111 28.0266C13.0019 28.0995 12.8867 28.1611 12.7654 28.2114C12.644 28.2617 12.519 28.2996 12.3902 28.3252C12.2614 28.3508 12.1313 28.3636 12 28.3636C11.8687 28.3636 11.7386 28.3508 11.6098 28.3252C11.481 28.2996 11.356 28.2617 11.2346 28.2114C11.1133 28.1611 10.9981 28.0995 10.8889 28.0266C10.7797 27.9536 10.6786 27.8707 10.5858 27.7778C10.4929 27.685 10.41 27.584 10.3371 27.4748C10.2641 27.3656 10.2025 27.2503 10.1522 27.129C10.102 27.0077 10.064 26.8826 10.0384 26.7538C10.0128 26.625 10 26.495 10 26.3636C10 26.2323 10.0128 26.1023 10.0384 25.9735C10.064 25.8447 10.102 25.7196 10.1522 25.5983C10.2025 25.4769 10.2641 25.3617 10.3371 25.2525C10.41 25.1433 10.4929 25.0423 10.5858 24.9494C10.6786 24.8566 10.7797 24.7737 10.8889 24.7007C10.9981 24.6277 11.1133 24.5661 11.2346 24.5159C11.356 24.4656 11.481 24.4277 11.6098 24.4021C11.7386 24.3764 11.8687 24.3636 12 24.3636C12.1313 24.3636 12.2614 24.3764 12.3902 24.4021C12.519 24.4277 12.644 24.4656 12.7654 24.5159C12.8867 24.5661 13.0019 24.6277 13.1111 24.7007C13.2203 24.7737 13.3214 24.8566 13.4142 24.9494C13.5071 25.0423 13.59 25.1433 13.6629 25.2525C13.7359 25.3617 13.7975 25.4769 13.8478 25.5983C13.898 25.7196 13.936 25.8447 13.9616 25.9735C13.9872 26.1023 14 26.2323 14 26.3636ZM30 22C30 22.1313 29.9872 22.2614 29.9616 22.3902C29.9359 22.519 29.898 22.644 29.8478 22.7654C29.7975 22.8867 29.7359 23.002 29.6629 23.1111C29.59 23.2203 29.5071 23.3214 29.4142 23.4142C29.3214 23.5071 29.2203 23.59 29.1111 23.6629C29.002 23.7359 28.8867 23.7975 28.7654 23.8478C28.644 23.898 28.519 23.936 28.3902 23.9616C28.2614 23.9872 28.1313 24 28 24C27.8687 24 27.7386 23.9872 27.6098 23.9616C27.481 23.936 27.356 23.898 27.2346 23.8478C27.1133 23.7975 26.998 23.7359 26.8889 23.6629C26.7797 23.59 26.6786 23.5071 26.5858 23.4142C26.4929 23.3214 26.41 23.2203 26.3371 23.1111C26.2641 23.002 26.2025 22.8867 26.1522 22.7654C26.102 22.644 26.064 22.519 26.0384 22.3902C26.0128 22.2614 26 22.1313 26 22C26 21.8687 26.0128 21.7386 26.0384 21.6098C26.064 21.481 26.102 21.356 26.1522 21.2346C26.2025 21.1133 26.2641 20.9981 26.3371 20.8889C26.41 20.7797 26.4929 20.6786 26.5858 20.5858C26.6786 20.4929 26.7797 20.41 26.8889 20.3371C26.998 20.2641 27.1133 20.2025 27.2346 20.1522C27.356 20.102 27.481 20.064 27.6098 20.0384C27.7386 20.0128 27.8687 20 28 20C28.1313 20 28.2614 20.0128 28.3902 20.0384C28.519 20.064 28.644 20.102 28.7654 20.1522C28.8867 20.2025 29.002 20.2641 29.1111 20.3371C29.2203 20.41 29.3214 20.4929 29.4142 20.5858C29.5071 20.6786 29.59 20.7797 29.6629 20.8889C29.7359 20.9981 29.7975 21.1133 29.8478 21.2346C29.898 21.356 29.9359 21.481 29.9616 21.6098C29.9872 21.7386 30 21.8687 30 22Z" fill="white"/>
    <defs>
        <linearGradient id="paint0_linear_2527_740" x1="20" y1="16" x2="20" y2="44" gradientUnits="userSpaceOnUse">
            <stop stop-color="#05D2FE"/>
            <stop offset="1" stop-color="#02B9FC"/>
        </linearGradient>
    </defs>
</svg>