<svg width="96" height="96" viewBox="0 0 96 96" fill="none" xmlns="http://www.w3.org/2000/svg">
<g clip-path="url(#clip0_1395_4072)">
<path d="M47.64 42.8652L44.0967 45.7518H46.4107V55.1348L47.64 54.1447V42.8652Z" fill="#5A29E4"/>
<path d="M48.6611 53.3062L52.2668 50.3472H49.8879V41.1787L48.6611 42.0329V53.3062Z" fill="#5A29E4"/>
<path d="M93.2914 44.5505C93.6999 44.763 93.994 44.9427 94.1738 45.0898L95.4483 42.6632C94.8111 42.271 94.0431 41.9197 93.1443 41.6093C92.2619 41.2988 91.306 41.1436 90.2766 41.1436C89.2962 41.1436 88.3893 41.307 87.5559 41.6338C86.7389 41.9606 86.0853 42.4426 85.5951 43.0799C85.1212 43.7172 84.8842 44.5097 84.8842 45.4574C84.8842 46.5196 85.2192 47.3366 85.8892 47.9085C86.5755 48.4641 87.6213 48.9216 89.0265 49.2811C90.154 49.5752 91.0609 49.8449 91.7472 50.09C92.4499 50.3187 92.8012 50.7027 92.8012 51.242C92.8012 52.0426 92.0495 52.443 90.5462 52.443C89.7945 52.443 89.0837 52.3531 88.4138 52.1734C87.7438 51.9936 87.1556 51.773 86.649 51.5116C86.1588 51.2501 85.8075 51.0132 85.5951 50.8008L84.2715 53.3744C85.1212 53.9136 86.0934 54.3385 87.1882 54.6489C88.2831 54.9594 89.386 55.1146 90.4972 55.1146C91.4613 55.1146 92.36 54.9839 93.1934 54.7225C94.0267 54.4447 94.6967 54.0035 95.2032 53.3989C95.7261 52.778 95.9876 51.9609 95.9876 50.9478C95.9876 50.1144 95.7915 49.4445 95.3993 48.938C95.0235 48.4151 94.4761 47.9984 93.7571 47.6879C93.0545 47.3775 92.2211 47.0997 91.257 46.8546C90.1622 46.5931 89.3288 46.3562 88.7569 46.1437C88.2014 45.9313 87.9236 45.5718 87.9236 45.0653C87.9236 44.1992 88.6916 43.7662 90.2276 43.7662C90.7995 43.7662 91.3551 43.8479 91.8943 44.0113C92.4335 44.1584 92.8992 44.3381 93.2914 44.5505Z" fill="#5A29E4"/>
<path fill-rule="evenodd" clip-rule="evenodd" d="M67.4977 55.041C66.4192 55.041 65.4388 54.8531 64.5564 54.4773C63.674 54.0851 62.9137 53.5622 62.2764 52.9086C61.6391 52.2386 61.1489 51.487 60.8057 50.6536C60.4631 49.8203 60.291 48.9624 60.291 48.08C60.291 47.1813 60.4708 46.3152 60.8302 45.4818C61.1897 44.6485 61.6968 43.9132 62.3504 43.2759C63.004 42.6223 63.7715 42.1075 64.6539 41.7317C65.5363 41.3559 66.5004 41.168 67.5462 41.168C68.6246 41.168 69.6056 41.3722 70.4879 41.7807C71.3703 42.1729 72.122 42.704 72.7429 43.3739C73.3802 44.0275 73.8699 44.771 74.2131 45.6044C74.5562 46.4378 74.7283 47.2874 74.7283 48.1535C74.7283 49.0522 74.5485 49.9183 74.1891 50.7517C73.8296 51.5687 73.3225 52.304 72.6689 52.9576C72.0316 53.5949 71.2723 54.1014 70.3899 54.4773C69.5075 54.8531 68.5434 55.041 67.4977 55.041ZM63.2813 48.1045C63.2813 48.8398 63.4534 49.5425 63.7965 50.2124C64.1392 50.866 64.6212 51.3971 65.2422 51.8056C65.8794 52.2141 66.6393 52.4184 67.5217 52.4184C68.4204 52.4184 69.1802 52.206 69.8011 51.7811C70.4226 51.3399 70.896 50.7925 71.2228 50.1388C71.5496 49.4689 71.7135 48.7826 71.7135 48.08C71.7135 47.3447 71.5419 46.6502 71.1988 45.9966C70.8556 45.3429 70.3654 44.8201 69.7276 44.4279C69.1067 44.0194 68.3637 43.8151 67.4977 43.8151C66.5989 43.8151 65.8304 44.0275 65.1931 44.4524C64.5722 44.8772 64.0983 45.4165 63.7715 46.0701C63.4447 46.7237 63.2813 47.4019 63.2813 48.1045Z" fill="#5A29E4"/>
<path fill-rule="evenodd" clip-rule="evenodd" d="M0 54.9427L5.9806 41.2412H8.40715L14.3632 54.9427H11.2259L9.85328 51.7318H4.53447L3.16187 54.9427H0ZM7.20613 44.8443L5.19626 49.1582H9.14247L7.20613 44.8443Z" fill="#5A29E4"/>
<path d="M25.9512 41.2412L29.7259 46.0943L33.5005 41.2412H36.7114L31.2945 48.1777L36.5398 54.9427H33.3289L29.7259 50.2857L26.1473 54.9427H22.8874L28.1572 48.1777L22.7158 41.2412H25.9512Z" fill="#5A29E4"/>
</g>
<defs>
<clipPath id="clip0_1395_4072">
<rect width="96" height="14.2979" fill="white" transform="translate(0 41)"/>
</clipPath>
</defs>
</svg>
