<svg width="96" height="96" viewBox="0 0 96 96" fill="none" xmlns="http://www.w3.org/2000/svg">
<path d="M75.9289 30.9948C77.4916 23.4256 77.8269 17.62 76.8169 13.4044C76.2161 10.8972 75.1178 8.85185 73.4478 7.37617C71.6846 5.81823 69.4555 5.05375 66.9508 5.05375C62.8188 5.05375 58.475 6.93601 53.8329 10.5118C51.9395 11.9703 49.9743 13.7283 47.9335 15.7868C47.771 15.5779 47.5874 15.3808 47.3829 15.1987C41.613 10.0624 36.7552 6.87114 32.6004 5.64068C30.1299 4.90906 27.8104 4.83935 25.6982 5.54942C23.4687 6.29895 21.6921 7.84833 20.4388 10.0185C18.3702 13.6001 17.8247 18.3063 18.5959 24.1173C18.9103 26.486 19.4477 29.0661 20.2069 31.8616C19.9205 31.8962 19.6333 31.9597 19.349 32.0538C12.0283 34.4772 6.84451 37.0833 3.70609 40.0615C1.83882 41.8336 0.61947 43.8063 0.178682 45.9901C-0.28657 48.295 0.167088 50.6069 1.41901 52.7755C3.48369 56.3519 7.28001 59.1726 12.6884 61.4068C14.86 62.3039 17.3171 63.1163 20.0624 63.847C19.9371 64.1296 19.8399 64.4296 19.7749 64.7444C18.2123 72.3136 17.8769 78.1191 18.887 82.3348C19.4877 84.842 20.586 86.8873 22.2561 88.363C24.0192 89.9209 26.2484 90.6854 28.7531 90.6854C32.8851 90.6854 37.2289 88.8032 41.871 85.2274C43.7845 83.7533 45.7714 81.9734 47.8356 79.8865C48.048 80.2184 48.3087 80.5269 48.6171 80.8015C54.387 85.9378 59.2448 89.1291 63.3996 90.3595C65.8701 91.0911 68.1896 91.1608 70.3018 90.4508C72.5314 89.7012 74.3079 88.1519 75.5613 85.9817C77.6298 82.4001 78.1753 77.6939 77.4041 71.8829C77.0784 69.4286 76.5132 66.7473 75.7099 63.8345C76.0239 63.8028 76.3392 63.7364 76.651 63.6332C83.9717 61.2098 89.1555 58.6037 92.2939 55.6254C94.1612 53.8534 95.3805 51.8806 95.8213 49.6969C96.2866 47.392 95.8329 45.08 94.581 42.9115C92.5163 39.3351 88.72 36.5144 83.3116 34.2802C81.0753 33.3564 78.5362 32.5223 75.6915 31.7748C75.7928 31.527 75.8729 31.2664 75.9289 30.9948Z" fill="#002C4B"/>
<path fill-rule="evenodd" clip-rule="evenodd" d="M40.6212 32.3369H55.3806C56.2856 32.3369 57.1214 32.821 57.5718 33.6059L64.9649 46.4901C65.4117 47.2688 65.4117 48.2261 64.9649 49.0048L57.5718 61.889C57.1214 62.6739 56.2856 63.158 55.3806 63.158H40.6212C39.7163 63.158 38.8804 62.6739 38.43 61.889L31.0369 49.0048C30.5901 48.2261 30.5901 47.2688 31.0369 46.4901L38.43 33.6059C38.8804 32.821 39.7163 32.3369 40.6212 32.3369ZM53.5514 35.5082C54.4568 35.5082 55.293 35.9928 55.7433 36.7783L61.3098 46.4913C61.7557 47.2694 61.7557 48.2255 61.3098 49.0036L55.7433 58.7165C55.293 59.5021 54.4568 59.9867 53.5514 59.9867H42.4505C41.545 59.9867 40.7088 59.5021 40.2586 58.7165L34.692 49.0036C34.2461 48.2255 34.2461 47.2694 34.692 46.4913L40.2586 36.7783C40.7088 35.9928 41.545 35.5082 42.4505 35.5082H53.5514ZM51.5772 38.9768H44.4246C43.5201 38.9768 42.6846 39.4604 42.234 40.2447L38.6468 46.489C38.1992 47.2682 38.1992 48.2266 38.6468 49.0059L42.234 55.2502C42.6846 56.0345 43.5201 56.5181 44.4246 56.5181H51.5772C52.4817 56.5181 53.3172 56.0345 53.7678 55.2502L57.355 49.0059C57.8027 48.2266 57.8027 47.2682 57.355 46.489L53.7678 40.2447C53.3172 39.4604 52.4817 38.9768 51.5772 38.9768ZM49.6767 42.2968C50.5805 42.2968 51.4155 42.7796 51.8663 43.563L53.5492 46.4874C53.9981 47.2674 53.9981 48.2274 53.5492 49.0075L51.8663 51.9319C51.4155 52.7153 50.5805 53.1981 49.6767 53.1981H46.3251C45.4213 53.1981 44.5863 52.7153 44.1355 51.9319L42.4526 49.0075C42.0037 48.2274 42.0037 47.2674 42.4526 46.4874L44.1355 43.563C44.5863 42.7796 45.4213 42.2968 46.3251 42.2968H49.6767ZM48.0016 45.5672C47.2212 45.5672 46.5012 45.9827 46.1115 46.6573C45.7218 47.3318 45.7218 48.1631 46.1115 48.8376C46.5012 49.5122 47.2212 49.9277 48.0003 49.9277C48.7807 49.9277 49.5006 49.5122 49.8904 48.8376C50.2801 48.1631 50.2801 47.3318 49.8904 46.6573C49.5006 45.9827 48.7807 45.5672 48.0016 45.5672ZM30.3154 47.7479H34.2402Z" fill="#FFD94C"/>
<path fill-rule="evenodd" clip-rule="evenodd" d="M27.7191 54.7492C28.3817 54.3705 29.2227 54.6061 29.5975 55.2754L29.8374 55.702C31.7593 59.1072 33.7615 62.3394 35.8439 65.3988C38.3032 69.0116 41.069 72.669 44.1413 76.3711C44.6235 76.9521 44.5569 77.8162 43.9914 78.3147L43.6824 78.5859C33.5227 87.4627 26.9196 89.2358 23.873 83.9052C20.8929 78.691 21.9714 69.2124 27.1083 55.4692C27.2222 55.1644 27.4384 54.9096 27.7191 54.7492ZM71.007 65.1999C71.7406 65.0704 72.4426 65.5539 72.5862 66.2876L72.6636 66.6878C75.1745 79.8293 73.4066 86.4 67.3598 86.4C61.4452 86.4 53.9163 80.7961 44.773 69.5884C44.5702 69.3398 44.4607 69.0277 44.4634 68.7064C44.4701 67.9481 45.0878 67.3388 45.8433 67.3454L46.3251 67.3488C50.1758 67.3698 53.9191 67.2362 57.5552 66.948C61.849 66.6078 66.333 66.0251 71.007 65.1999ZM74.4805 37.2945C74.7449 36.5824 75.5413 36.2089 76.2721 36.4542L76.6702 36.5889C89.7268 41.0364 94.6878 45.9242 91.5531 51.2522C88.487 56.4638 79.5713 60.2578 64.8062 62.6343C64.4787 62.687 64.1427 62.6253 63.8568 62.46C63.1819 62.0699 62.9571 61.2168 63.3546 60.5545L63.6075 60.1316C65.6224 56.7493 67.4435 53.3832 69.0707 50.0333C70.9923 46.0774 72.7955 41.8311 74.4805 37.2945ZM31.1944 33.3657C31.5219 33.313 31.8578 33.3747 32.1437 33.5399C32.8186 33.9301 33.0434 34.7832 32.6459 35.4455L32.393 35.8684C30.3781 39.2507 28.5571 42.6168 26.9299 45.9667C25.0083 49.9226 23.205 54.1689 21.5201 58.7055C21.2556 59.4176 20.4592 59.7911 19.7285 59.5458L19.3303 59.4111C6.27373 54.9636 1.31276 50.0758 4.44743 44.7477C7.51358 39.5361 16.4292 35.7421 31.1944 33.3657ZM52.3181 17.4141C62.4778 8.53726 69.0809 6.76417 72.1276 12.0948C75.1076 17.3089 74.0292 26.7876 68.8922 40.5308C68.7783 40.8356 68.5622 41.0904 68.2814 41.2508C67.6189 41.6295 66.7779 41.3939 66.403 40.7246L66.1632 40.298C64.2413 36.8928 62.2391 33.6605 60.1566 30.6012C57.6973 26.9884 54.9315 23.331 51.8592 19.6289C51.377 19.0478 51.4437 18.1838 52.0092 17.6852L52.3181 17.4141ZM29.146 9.09473C35.0606 9.09473 42.5895 14.6986 51.7328 25.9063C51.9356 26.1549 52.0451 26.467 52.0424 26.7883C52.0357 27.5466 51.418 28.156 50.6625 28.1493L50.1807 28.1459C46.33 28.125 42.5867 28.2586 38.9506 28.5467C34.6568 28.887 30.1728 29.4697 25.4988 30.2948C24.7652 30.4243 24.0632 29.9408 23.9196 29.2071L23.8422 28.8069C21.3313 15.6654 23.0992 9.09473 29.146 9.09473Z" fill="#FF4154"/>
</svg>
