<svg width="96" height="96" viewBox="0 0 96 96" fill="none" xmlns="http://www.w3.org/2000/svg">
<path d="M48.0176 56.1924C52.7552 56.1924 56.5957 52.3519 56.5957 47.6143C56.5957 42.8767 52.7552 39.0361 48.0176 39.0361C43.28 39.0361 39.4395 42.8767 39.4395 47.6143C39.4395 52.3519 43.28 56.1924 48.0176 56.1924Z" fill="#00D8FF"/>
<path d="M48.0171 67.2652C35.9701 67.2652 25.4439 65.8469 17.5664 63.147C12.4571 61.404 8.11677 59.08 5.02385 56.4314C1.74297 53.629 0 50.5702 0 47.614C0 41.9408 6.22001 36.3873 16.6607 32.7646C25.2047 29.7913 36.346 28.1338 48 28.1338C59.4489 28.1338 70.4365 29.7401 78.9292 32.6792C83.9017 34.388 88.0883 36.6094 91.0616 39.0701C94.2912 41.77 96 44.7262 96 47.614C96 53.5094 89.0452 59.4731 77.8355 63.1811C69.9067 65.8127 59.3122 67.2652 48.0171 67.2652ZM48.0171 32.2349C36.9612 32.2349 26.0249 33.8412 18.0278 36.6265C8.42435 39.9757 4.11819 44.5553 4.11819 47.614C4.11819 50.7924 8.74902 55.7991 18.8993 59.268C26.3496 61.8141 36.4315 63.164 48.0171 63.164C58.885 63.164 69.0182 61.797 76.5539 59.2851C87.0972 55.7821 91.916 50.7753 91.916 47.614C91.916 45.9907 90.6857 44.0768 88.4471 42.2142C85.8669 40.0612 82.1075 38.0961 77.6134 36.5411C69.5308 33.7728 59.0217 32.2349 48.0171 32.2349Z" fill="#00D8FF"/>
<path d="M28.5537 90.3692C26.8107 90.3692 25.2728 89.9933 23.9741 89.2414C19.0699 86.4048 17.3611 78.2367 19.4287 67.3859C21.1204 58.4831 25.2557 48.0253 31.0827 37.9263C36.8072 28.0153 43.6765 19.3005 50.4604 13.4051C54.4248 9.95337 58.4405 7.42436 62.0631 6.0915C66.0104 4.63903 69.428 4.63903 71.9229 6.07441C77.0322 9.01354 78.7239 18.036 76.3315 29.5874C74.6398 37.7896 70.6071 47.6835 64.9681 57.4749C58.9531 67.8986 52.4597 76.3058 46.1884 81.791C42.1215 85.3453 37.935 87.9427 34.1073 89.2926C32.108 90.0103 30.2283 90.3692 28.5537 90.3692ZM32.8428 38.9516L34.6199 39.9769C29.1005 49.5461 25.0165 59.816 23.4444 68.1549C21.5476 78.1513 23.376 84.1663 26.0076 85.6871C26.6569 86.063 27.5113 86.2681 28.5537 86.2681C31.9542 86.2681 37.3027 84.115 43.4885 78.7152C49.4181 73.5376 55.621 65.4721 61.4138 55.4414C66.8477 46.026 70.7096 36.5593 72.3159 28.7843C74.5544 17.8993 72.6235 11.235 69.8723 9.64579C68.4711 8.84266 66.1984 8.94519 63.4643 9.95337C60.3031 11.1154 56.7317 13.388 53.1432 16.5151C46.7011 22.12 40.1222 30.4589 34.6199 39.994L32.8428 38.9516Z" fill="#00D8FF"/>
<path d="M67.4812 90.4218C62.8332 90.4218 56.9379 87.6194 50.7863 82.3221C43.9169 76.4097 36.9279 67.6094 31.0839 57.5104C25.3423 47.5994 21.2412 37.2954 19.5153 28.4609C18.5071 23.3004 18.3192 18.567 18.9685 14.7564C19.6862 10.6041 21.3779 7.64784 23.8898 6.19537C28.9821 3.23916 37.6456 6.28081 46.463 14.1242C52.7172 19.6777 59.279 28.1192 64.9351 37.8935C70.9671 48.3171 75.0169 58.1427 76.6232 66.3107C77.6656 71.608 77.8365 76.5293 77.1017 80.5279C76.3156 84.7828 74.5385 87.8073 71.9753 89.294C70.6937 90.0458 69.1729 90.4218 67.4812 90.4218ZM34.6382 55.4599C40.1746 65.0291 47.044 73.6927 53.4691 79.2121C61.1757 85.8422 67.2932 87.2776 69.9418 85.7397C72.693 84.1505 74.7094 77.64 72.6246 67.1138C71.0867 59.3901 67.2078 49.9917 61.3979 39.9611C55.9468 30.5457 49.6755 22.4631 43.746 17.2C35.4413 9.81801 28.7086 8.16048 25.9575 9.74966C24.5563 10.5528 23.5139 12.5863 23.0184 15.457C22.4545 18.7721 22.6253 23.0099 23.5481 27.6749C25.1885 36.0651 29.1188 45.9248 34.6382 55.4599Z" fill="#00D8FF"/>
</svg>
