<svg width="96" height="96" viewBox="0 0 96 96" fill="none" xmlns="http://www.w3.org/2000/svg">
<g clip-path="url(#clip0_1392_4017)">
<path fill-rule="evenodd" clip-rule="evenodd" d="M77.1587 1.69576e-05C82.3613 1.69576e-05 87.0715 2.11988 90.481 5.54579C93.8906 8.9717 96 13.7057 96 18.9335V77.0231C96 82.2514 93.8911 86.9849 90.4815 90.4113C88.7339 92.1721 86.6572 93.5685 84.3708 94.5201C82.0844 95.4717 79.6334 95.9599 77.1587 95.9566H18.8413C13.6387 95.9566 8.92852 93.8367 5.51897 90.4108C2.10942 86.9849 0 82.2509 0 77.0231V18.9335C0 13.7052 2.1089 8.9717 5.51845 5.54527C7.26612 3.78448 9.34283 2.38815 11.6292 1.43651C13.9156 0.484865 16.3666 -0.00331658 18.8413 1.69576e-05H77.1587Z" fill="#EC5990"/>
<path fill-rule="evenodd" clip-rule="evenodd" d="M64.457 22.358H53.6864C52.8967 19.886 50.5994 18.208 48.0044 18.208C45.4093 18.208 43.112 19.886 42.3223 22.358H31.544C27.3003 22.358 23.8604 25.7979 23.8604 30.0413V70.0718C23.8604 74.3151 27.3003 77.755 31.544 77.755H64.457C68.7006 77.755 72.1406 74.3151 72.1406 70.0718V30.0413C72.1406 25.7979 68.7006 22.358 64.457 22.358ZM42.8596 23.7548C43.0217 23.7589 43.1801 23.706 43.3076 23.6052C43.4351 23.5045 43.5236 23.3622 43.5579 23.2029C44.0152 21.1043 45.8733 19.6074 48.0214 19.6074C50.1695 19.6074 52.0276 21.1038 52.4849 23.2029C52.5192 23.3622 52.6077 23.5045 52.7352 23.6052C52.8626 23.706 53.0211 23.7589 53.1832 23.7548H56.9411V28.3301C56.9411 29.4873 56.0028 30.4256 54.8456 30.4256H41.1899C40.0327 30.4256 39.0944 29.4873 39.0944 28.3301V23.7548H42.8596ZM70.7434 70.0718C70.7434 73.5438 67.929 76.3582 64.457 76.3582H31.544C28.072 76.3582 25.2575 73.5438 25.2575 70.0718V30.0413C25.2575 26.5692 28.072 23.7548 31.544 23.7548H37.6978V28.3301C37.6978 30.2591 39.2616 31.8224 41.1904 31.8224H54.8111C56.7398 31.8224 58.3037 30.2586 58.3037 28.3301V23.7548H64.4575C67.9295 23.7548 70.744 26.5692 70.744 30.0413L70.7434 70.0718ZM63.0877 45.1848H50.794C50.7025 45.1846 50.6119 45.2025 50.5273 45.2375C50.4427 45.2725 50.3657 45.3239 50.3009 45.3888C50.236 45.4536 50.1845 45.5307 50.1493 45.6156C50.1141 45.7005 50.0959 45.7915 50.0957 45.8834C50.0959 45.9754 50.1141 46.0664 50.1493 46.1513C50.1845 46.2362 50.236 46.3132 50.3009 46.3781C50.3657 46.443 50.4427 46.4944 50.5273 46.5294C50.6119 46.5644 50.7025 46.5823 50.794 46.5821H63.0877C63.1792 46.5823 63.2699 46.5644 63.3545 46.5294C63.4391 46.4944 63.516 46.443 63.5808 46.3781C63.6457 46.3132 63.6972 46.2362 63.7324 46.1513C63.7676 46.0664 63.7858 45.9754 63.786 45.8834C63.7858 45.7915 63.7676 45.7005 63.7324 45.6156C63.6972 45.5307 63.6457 45.4536 63.5808 45.3888C63.516 45.3239 63.4391 45.2725 63.3545 45.2375C63.2699 45.2025 63.1792 45.1846 63.0877 45.1848ZM44.9272 45.1848H32.6335C32.542 45.1846 32.4514 45.2025 32.3668 45.2375C32.2821 45.2725 32.2052 45.3239 32.1404 45.3888C32.0755 45.4536 32.024 45.5307 31.9888 45.6156C31.9536 45.7005 31.9354 45.7915 31.9352 45.8834C31.9354 45.9754 31.9536 46.0664 31.9888 46.1513C32.024 46.2362 32.0755 46.3132 32.1404 46.3781C32.2052 46.443 32.2821 46.4944 32.3668 46.5294C32.4514 46.5644 32.542 46.5823 32.6335 46.5821H44.9272C45.0187 46.5823 45.1093 46.5644 45.194 46.5294C45.2786 46.4944 45.3555 46.443 45.4203 46.3781C45.4852 46.3132 45.5367 46.2362 45.5719 46.1513C45.6071 46.0664 45.6253 45.9754 45.6255 45.8834C45.6253 45.7915 45.6071 45.7005 45.5719 45.6156C45.5367 45.5307 45.4852 45.4536 45.4203 45.3888C45.3555 45.3239 45.2786 45.2725 45.194 45.2375C45.1093 45.2025 45.0187 45.1846 44.9272 45.1848ZM63.1228 62.0882H50.7945C50.703 62.088 50.6124 62.1059 50.5278 62.1409C50.4432 62.1759 50.3662 62.2273 50.3014 62.2922C50.2366 62.357 50.1851 62.4341 50.1499 62.519C50.1146 62.6039 50.0964 62.6949 50.0962 62.7868C50.0964 62.8788 50.1146 62.9698 50.1499 63.0547C50.1851 63.1396 50.2366 63.2166 50.3014 63.2815C50.3662 63.3464 50.4432 63.3978 50.5278 63.4328C50.6124 63.4678 50.703 63.4857 50.7945 63.4855H63.1228C63.2143 63.4857 63.3049 63.4678 63.3896 63.4328C63.4742 63.3978 63.5511 63.3464 63.6159 63.2815C63.6808 63.2166 63.7323 63.1396 63.7675 63.0547C63.8027 62.9698 63.8209 62.8788 63.8211 62.7868C63.8209 62.6949 63.8027 62.6039 63.7675 62.519C63.7323 62.4341 63.6808 62.357 63.6159 62.2922C63.5511 62.2273 63.4742 62.1759 63.3896 62.1409C63.3049 62.1059 63.2143 62.088 63.1228 62.0882ZM44.9618 62.0882H32.6335C32.542 62.088 32.4514 62.1059 32.3668 62.1409C32.2821 62.1759 32.2052 62.2273 32.1404 62.2922C32.0755 62.357 32.024 62.4341 31.9888 62.519C31.9536 62.6039 31.9354 62.6949 31.9352 62.7868C31.9354 62.8788 31.9536 62.9698 31.9888 63.0547C32.024 63.1396 32.0755 63.2166 32.1404 63.2815C32.2052 63.3464 32.2821 63.3978 32.3668 63.4328C32.4514 63.4678 32.542 63.4857 32.6335 63.4855H44.9618C45.0533 63.4857 45.1439 63.4678 45.2285 63.4328C45.3131 63.3978 45.3901 63.3464 45.4549 63.2815C45.5198 63.2166 45.5713 63.1396 45.6065 63.0547C45.6417 62.9698 45.6599 62.8788 45.6601 62.7868C45.6599 62.6949 45.6417 62.6039 45.6065 62.519C45.5713 62.4341 45.5198 62.357 45.4549 62.2922C45.3901 62.2273 45.3131 62.1759 45.2285 62.1409C45.1439 62.1059 45.0533 62.088 44.9618 62.0882Z" fill="white"/>
</g>
<defs>
<clipPath id="clip0_1392_4017">
<rect width="96" height="96" fill="white"/>
</clipPath>
</defs>
</svg>
