<svg xmlns="http://www.w3.org/2000/svg" width="48" height="52" viewBox="0 0 48 52" fill="none">
    <path fill-rule="evenodd" clip-rule="evenodd" d="M24 48C24.3928 48 24.7853 47.9903 25.1776 47.971C25.5699 47.9518 25.9615 47.9229 26.3524 47.8844C26.7433 47.8459 27.1331 47.7978 27.5216 47.7402C27.9101 47.6826 28.297 47.6155 28.6822 47.5388C29.0674 47.4623 29.4505 47.3763 29.8316 47.2808C30.2125 47.1853 30.5909 47.0806 30.9668 46.9666C31.3427 46.8526 31.7155 46.7294 32.0854 46.597C32.4551 46.4647 32.8215 46.3235 33.1844 46.1732C33.5473 46.0228 33.9063 45.8637 34.2614 45.6958C34.6165 45.5278 34.9672 45.3513 35.3136 45.1662C35.66 44.981 36.0016 44.7874 36.3384 44.5854C36.6753 44.3835 37.0071 44.1735 37.3336 43.9552C37.6603 43.7371 37.9813 43.511 38.2968 43.277C38.6123 43.043 38.9218 42.8014 39.2254 42.5522C39.529 42.303 39.8263 42.0465 40.1174 41.7828C40.4085 41.5191 40.6929 41.2483 40.9706 40.9706C41.2483 40.6929 41.5191 40.4085 41.7828 40.1174C42.0465 39.8263 42.303 39.529 42.5522 39.2254C42.8014 38.9218 43.043 38.6123 43.277 38.2968C43.511 37.9813 43.7371 37.6603 43.9552 37.3336C44.1735 37.0071 44.3835 36.6753 44.5854 36.3384C44.7874 36.0016 44.981 35.66 45.1662 35.3136C45.3513 34.9672 45.5278 34.6165 45.6958 34.2614C45.8637 33.9063 46.0228 33.5473 46.1732 33.1844C46.3235 32.8215 46.4647 32.4551 46.597 32.0854C46.7294 31.7155 46.8526 31.3427 46.9666 30.9668C47.0806 30.5909 47.1853 30.2125 47.2808 29.8316C47.3763 29.4505 47.4623 29.0674 47.5388 28.6822C47.6155 28.297 47.6826 27.9101 47.7402 27.5216C47.7978 27.1331 47.8459 26.7433 47.8844 26.3524C47.9229 25.9615 47.9518 25.5699 47.971 25.1776C47.9903 24.7853 48 24.3928 48 24C48 23.6072 47.9903 23.2147 47.971 22.8224C47.9518 22.4301 47.9229 22.0385 47.8844 21.6476C47.8459 21.2567 47.7978 20.8669 47.7402 20.4784C47.6826 20.0899 47.6155 19.7031 47.5388 19.3178C47.4623 18.9326 47.3763 18.5495 47.2808 18.1685C47.1853 17.7875 47.0806 17.409 46.9666 17.0332C46.8526 16.6573 46.7294 16.2845 46.597 15.9146C46.4647 15.5448 46.3235 15.1785 46.1732 14.8156C46.0228 14.4527 45.8637 14.0937 45.6958 13.7387C45.5278 13.3836 45.3513 13.0329 45.1662 12.6865C44.981 12.3401 44.7874 11.9984 44.5854 11.6615C44.3835 11.3246 44.1735 10.9929 43.9552 10.6663C43.7371 10.3397 43.511 10.0187 43.277 9.70322C43.043 9.38774 42.8014 9.07819 42.5522 8.77456C42.303 8.47093 42.0465 8.17361 41.7828 7.88258C41.5191 7.59155 41.2483 7.30717 40.9706 7.02944C40.6929 6.75171 40.4085 6.48095 40.1174 6.21718C39.8263 5.95341 39.529 5.69693 39.2254 5.44774C38.9218 5.19857 38.6123 4.95699 38.2968 4.72302C37.9813 4.48905 37.6603 4.26295 37.3336 4.04472C37.0071 3.82651 36.6753 3.61644 36.3384 3.41452C36.0016 3.21259 35.66 3.01904 35.3136 2.83388C34.9672 2.64873 34.6165 2.47219 34.2614 2.30426C33.9063 2.13633 33.5473 1.9772 33.1844 1.82689C32.8215 1.67658 32.4551 1.53526 32.0854 1.40294C31.7155 1.27062 31.3427 1.14745 30.9668 1.03343C30.5909 0.919415 30.2125 0.814688 29.8316 0.71925C29.4505 0.623813 29.0674 0.537781 28.6822 0.461154C28.297 0.384526 27.9101 0.317396 27.5216 0.259764C27.1331 0.202132 26.7433 0.154066 26.3524 0.115567C25.9615 0.0770677 25.5699 0.0481819 25.1776 0.0289092C24.7853 0.00963654 24.3928 0 24 0C23.6072 0 23.2147 0.00963654 22.8224 0.0289092C22.4301 0.0481819 22.0385 0.0770677 21.6476 0.115567C21.2567 0.154066 20.8669 0.202132 20.4784 0.259764C20.0899 0.317396 19.7031 0.384526 19.3178 0.461154C18.9326 0.537781 18.5495 0.623813 18.1685 0.71925C17.7875 0.814688 17.409 0.919415 17.0332 1.03343C16.6573 1.14745 16.2845 1.27062 15.9146 1.40294C15.5448 1.53526 15.1785 1.67658 14.8156 1.82689C14.4527 1.9772 14.0937 2.13633 13.7387 2.30426C13.3836 2.47219 13.0329 2.64873 12.6865 2.83388C12.3401 3.01904 11.9984 3.21259 11.6615 3.41452C11.3246 3.61644 10.9929 3.82651 10.6663 4.04472C10.3397 4.26295 10.0187 4.48905 9.70322 4.72302C9.38774 4.95699 9.07819 5.19857 8.77456 5.44774C8.47093 5.69693 8.17361 5.95341 7.88258 6.21718C7.59155 6.48095 7.30717 6.75171 7.02944 7.02944C6.75171 7.30717 6.48095 7.59155 6.21718 7.88258C5.95341 8.17361 5.69693 8.47093 5.44774 8.77456C5.19857 9.07819 4.95699 9.38774 4.72302 9.70322C4.48905 10.0187 4.26295 10.3397 4.04472 10.6663C3.82651 10.9929 3.61644 11.3246 3.41452 11.6615C3.21259 11.9984 3.01904 12.3401 2.83388 12.6865C2.64873 13.0329 2.47219 13.3836 2.30426 13.7387C2.13633 14.0937 1.9772 14.4527 1.82689 14.8156C1.67658 15.1785 1.53526 15.5448 1.40294 15.9146C1.27062 16.2845 1.14745 16.6573 1.03343 17.0332C0.919415 17.409 0.814687 17.7875 0.71925 18.1685C0.623812 18.5495 0.537781 18.9326 0.461154 19.3178C0.384526 19.7031 0.317396 20.0899 0.259764 20.4784C0.202131 20.8669 0.154065 21.2567 0.115566 21.6476C0.0770672 22.0385 0.0481814 22.4301 0.0289087 22.8224C0.00963606 23.2147 0 23.6072 0 24C0 24.7731 0.0372708 25.5444 0.111812 26.314C0.186352 27.0835 0.297816 27.8476 0.446204 28.6064C0.594591 29.3651 0.779209 30.1149 1.00006 30.8558C1.22091 31.5967 1.47696 32.3253 1.76822 33.0414C2.05947 33.7577 2.38458 34.4581 2.74354 35.1428C3.10249 35.8276 3.49361 36.4935 3.9169 37.1404C4.34019 37.7873 4.79369 38.4123 5.2774 39.0154C5.76109 39.6186 6.27274 40.197 6.81234 40.7506L4.85276 48.589C4.47658 50.0936 5.88212 51.4354 7.36774 50.9896L19.052 47.4844C20.6835 47.8281 22.3328 48 24 48Z" fill="url(#paint0_linear_2527_636)"/>
    <path d="M19 24C20.6569 24 22 22.6569 22 21C22 19.3431 20.6569 18 19 18C17.3431 18 16 19.3431 16 21C16 22.6569 17.3431 24 19 24Z" fill="white"/>
    <path d="M35 24C36.6569 24 38 22.6569 38 21C38 19.3431 36.6569 18 35 18C33.3431 18 32 19.3431 32 21C32 22.6569 33.3431 24 35 24Z" fill="white"/>
    <path fill-rule="evenodd" clip-rule="evenodd" d="M18.2607 30C18.3377 30.2177 18.4229 30.4321 18.5164 30.6433C18.6099 30.8544 18.7114 31.0617 18.8208 31.265C18.9302 31.4684 19.0473 31.6672 19.172 31.8615C19.2968 32.0559 19.4288 32.2451 19.5681 32.4293C19.7074 32.6135 19.8536 32.792 20.0066 32.9649C20.1597 33.1378 20.3191 33.3046 20.485 33.4653C20.6509 33.6259 20.8227 33.7799 21.0005 33.9274C21.1782 34.0748 21.3613 34.2151 21.5499 34.3485C21.7384 34.4818 21.9318 34.6077 22.13 34.7261C22.3283 34.8445 22.5308 34.9552 22.7375 35.058C22.9443 35.1609 23.1547 35.2556 23.3687 35.3423C23.5828 35.4289 23.7998 35.5072 24.0199 35.5772C24.2399 35.6471 24.4624 35.7085 24.6872 35.7613C24.912 35.8142 25.1385 35.8583 25.3667 35.8937C25.5948 35.9291 25.8241 35.9556 26.0543 35.9734C26.2845 35.9911 26.5151 36 26.746 36C26.9769 36 27.2075 35.9911 27.4378 35.9734C27.668 35.9556 27.8972 35.9291 28.1254 35.8937C28.3536 35.8583 28.5801 35.8142 28.8049 35.7613C29.0297 35.7085 29.2521 35.6471 29.4722 35.5772C29.6922 35.5072 29.9093 35.4289 30.1233 35.3423C30.3374 35.2556 30.5478 35.1609 30.7545 35.058C30.9613 34.9552 31.1638 34.8445 31.362 34.7261C31.5602 34.6077 31.7536 34.4818 31.9422 34.3485C32.1307 34.2151 32.3139 34.0748 32.4916 33.9274C32.6693 33.7799 32.8412 33.6259 33.007 33.4653C33.1729 33.3046 33.3324 33.1378 33.4854 32.9649C33.6385 32.792 33.7846 32.6135 33.924 32.4293C34.0633 32.2451 34.1953 32.0559 34.32 31.8615C34.4447 31.6672 34.5618 31.4684 34.6713 31.265C34.7807 31.0617 34.8822 30.8544 34.9756 30.6433C35.0691 30.4321 35.1543 30.2177 35.2313 30H18.2607Z" fill="white"/>
    <defs>
        <linearGradient id="paint0_linear_2527_636" x1="26.6578" y1="43.1441" x2="-1.35559" y2="41.8193" gradientUnits="userSpaceOnUse">
            <stop stop-color="#00C892"/>
            <stop offset="1" stop-color="#A5E9BC"/>
        </linearGradient>
    </defs>
</svg>