<svg xmlns="http://www.w3.org/2000/svg" width="40" height="36" viewBox="0 0 40 36" fill="none">
    <path d="M16.0763 34.9288C16.035 35.5076 16.4934 36 17.0738 36H22.9258C23.5062 36 23.9646 35.5076 23.9233 34.9288L22.9998 22H16.9998L16.0763 34.9288Z" fill="url(#paint0_linear_2514_7574)"/>
    <path d="M36 0H4C1.79086 0 0 1.79086 0 4V24C0 26.2091 1.79086 28 4 28H36C38.2091 28 40 26.2091 40 24V4C40 1.79086 38.2091 0 36 0Z" fill="url(#paint1_radial_2514_7574)"/>
    <path d="M0 26C0 28.2091 1.79086 30 4 30H36C38.2092 30 40 28.2091 40 26V22H0V26Z" fill="#D8D8D8"/>
    <path d="M22 26C22 24.8954 21.1046 24 20 24C18.8954 24 18 24.8954 18 26C18 27.1046 18.8954 28 20 28C21.1046 28 22 27.1046 22 26Z" fill="#2B2B2B"/>
    <defs>
        <linearGradient id="paint0_linear_2514_7574" x1="19.9998" y1="29.8608" x2="19.9998" y2="36" gradientUnits="userSpaceOnUse">
            <stop stop-color="#B8B8B8"/>
            <stop offset="1" stop-color="#C7C7C7"/>
        </linearGradient>
        <radialGradient id="paint1_radial_2514_7574" cx="0" cy="0" r="1" gradientUnits="userSpaceOnUse" gradientTransform="translate(1.36763 28) rotate(144.066) scale(47.7123 68.1604)">
            <stop/>
            <stop offset="1" stop-color="#757575"/>
        </radialGradient>
    </defs>
</svg>