<svg xmlns="http://www.w3.org/2000/svg" width="32" height="44" viewBox="0 0 32 44" fill="none">
    <path d="M18 42C18 40.8954 17.1046 40 16 40C14.8954 40 14 40.8954 14 42C14 43.1046 14.8954 44 16 44C17.1046 44 18 43.1046 18 42Z" fill="black"/>
    <path fill-rule="evenodd" clip-rule="evenodd" d="M29.2664 24.9442C31.0888 22.2413 32 19.2599 32 16C32 11.5817 30.4379 7.81049 27.3138 4.6863C24.1895 1.5621 20.4183 0 16 0C11.5817 0 7.81049 1.5621 4.6863 4.6863C1.5621 7.81049 0 11.5817 0 16C0 19.2599 0.911166 22.2413 2.7335 24.9442C3.96715 26.7741 5.47571 28.2647 7.25916 29.416V29.4228C8.11362 30.0676 8.78406 30.9116 9.27044 31.9546C9.75682 32.9976 10 34.1126 10 35.3C10 35.4078 9.99786 35.5156 9.9936 35.6232C9.98934 35.731 9.98294 35.8384 9.97442 35.9458H10V36H22V35.3C22 34.0948 22.25 32.9652 22.7502 31.9108C23.2504 30.8562 23.938 30.009 24.8132 29.369C26.5651 28.2242 28.0495 26.7493 29.2664 24.9442Z" fill="url(#paint0_radial_2514_7398)"/>
    <path d="M10 38C10 40.2091 11.7909 42 14 42H18C20.2091 42 22 40.2091 22 38V36H10V38Z" fill="url(#paint1_radial_2514_7398)"/>
    <path d="M19 38H13C12.4477 38 12 38.4477 12 39C12 39.5523 12.4477 40 13 40H19C19.5523 40 20 39.5523 20 39C20 38.4477 19.5523 38 19 38Z" fill="black" fill-opacity="0.2"/>
    <path fill-rule="evenodd" clip-rule="evenodd" d="M11.7574 11.7574C12.9289 10.5858 14.3431 10 16 10C16.5523 10 17.0237 9.80474 17.4142 9.41422C17.8047 9.02368 18 8.55228 18 8C18 7.44772 17.8047 6.97631 17.4142 6.58579C17.0237 6.19526 16.5523 6 16 6C13.2386 6 10.8816 6.97631 8.92894 8.92894C6.97631 10.8816 6 13.2386 6 16C6 16.5523 6.19526 17.0237 6.58579 17.4142C6.97631 17.8047 7.44772 18 8 18C8.55228 18 9.02368 17.8047 9.41422 17.4142C9.80474 17.0237 10 16.5523 10 16C10 14.3431 10.5858 12.9289 11.7574 11.7574Z" fill="white"/>
    <defs>
        <radialGradient id="paint0_radial_2514_7398" cx="0" cy="0" r="1" gradientUnits="userSpaceOnUse" gradientTransform="translate(10.6504 9.89853) rotate(56.4705) scale(26.9913 23.9923)">
            <stop stop-color="#FADF73"/>
            <stop offset="0.457142" stop-color="#FFD500"/>
            <stop offset="1" stop-color="#FC9900"/>
        </radialGradient>
        <radialGradient id="paint1_radial_2514_7398" cx="0" cy="0" r="1" gradientUnits="userSpaceOnUse" gradientTransform="translate(6.0874 34.1362) rotate(38.4256) scale(12.653 25.3061)">
            <stop stop-color="#EFFCFF"/>
            <stop offset="0.999999" stop-color="#A5F2FF"/>
        </radialGradient>
    </defs>
</svg>