<svg xmlns="http://www.w3.org/2000/svg" width="44" height="32" viewBox="0 0 44 32" fill="none">
    <path d="M40 0H4C1.79086 0 0 1.79086 0 4V28C0 30.2091 1.79086 32 4 32H40C42.2091 32 44 30.2091 44 28V4C44 1.79086 42.2091 0 40 0Z" fill="url(#paint0_linear_2527_630)"/>
    <path fill-rule="evenodd" clip-rule="evenodd" d="M39.9998 0H3.99983C3.46939 0 2.95914 0.101494 2.46909 0.304482C1.97903 0.50747 1.54646 0.7965 1.17139 1.17157L19.1714 19.1716C19.5465 19.5466 19.979 19.8357 20.4691 20.0386C20.9591 20.2417 21.4694 20.3432 21.9998 20.3432C22.5302 20.3432 23.0405 20.2417 23.5306 20.0386C24.0206 19.8357 24.4531 19.5466 24.8282 19.1716L42.8282 1.17157C42.4532 0.796496 42.0206 0.507468 41.5306 0.30448C41.0406 0.101493 40.5302 0 39.9998 0Z" fill="url(#paint1_linear_2527_630)"/>
    <defs>
        <linearGradient id="paint0_linear_2527_630" x1="22" y1="0" x2="22" y2="32" gradientUnits="userSpaceOnUse">
            <stop stop-color="#FAC227"/>
            <stop offset="1" stop-color="#FAA627"/>
        </linearGradient>
        <linearGradient id="paint1_linear_2527_630" x1="21.9998" y1="0" x2="21.9998" y2="20.3432" gradientUnits="userSpaceOnUse">
            <stop stop-color="#FCE4B1"/>
            <stop offset="1" stop-color="#FFD272"/>
        </linearGradient>
    </defs>
</svg>