<svg xmlns="http://www.w3.org/2000/svg" width="45" height="38" viewBox="0 0 45 38" fill="none">
    <path d="M11.5298 21.9299L16.2 35.9426L37.7352 8.42676V5.87898L23.8541 12.3758L11.5298 21.9299Z" fill="url(#paint0_linear_2527_579)"/>
    <path d="M16.2002 35.9426L37.7354 15.7516V5.87898L29.9516 16.5796L17.757 24.4777L16.2002 35.9426Z" fill="url(#paint1_linear_2527_579)"/>
    <path d="M2.1921 14.9053C0.437041 15.5574 0.46002 18.0478 2.2268 18.6674L11.5298 21.93L37.7353 5.87899L17.7569 24.4778L34.4173 37.0792C35.5929 37.9684 37.2939 37.3236 37.5845 35.8784L44.2925 2.51931C44.6013 0.983161 43.1039 -0.295461 41.6351 0.250269L2.1921 14.9053Z" fill="url(#paint2_linear_2527_579)"/>
    <defs>
        <linearGradient id="paint0_linear_2527_579" x1="24.6325" y1="5.87898" x2="24.6325" y2="35.9426" gradientUnits="userSpaceOnUse">
            <stop stop-color="#FAC227"/>
            <stop offset="1" stop-color="#FAA627"/>
        </linearGradient>
        <linearGradient id="paint1_linear_2527_579" x1="26.9678" y1="16.3137" x2="26.9678" y2="35.9426" gradientUnits="userSpaceOnUse">
            <stop stop-color="#FA7F27"/>
            <stop offset="1" stop-color="#FA9427"/>
        </linearGradient>
        <linearGradient id="paint2_linear_2527_579" x1="22.611" y1="0.122009" x2="22.611" y2="37.4858" gradientUnits="userSpaceOnUse">
            <stop stop-color="#FCE4B1"/>
            <stop offset="1" stop-color="#FFD272"/>
        </linearGradient>
    </defs>
</svg>