<svg width="32" height="32" viewBox="0 0 32 32" fill="none" xmlns="http://www.w3.org/2000/svg">
<path fill-rule="evenodd" clip-rule="evenodd" d="M16 27C16.1964 27 16.3927 26.9952 16.5888 26.9855C16.7849 26.9759 16.9807 26.9615 17.1762 26.9422C17.3717 26.9229 17.5665 26.8989 17.7608 26.8701C17.9551 26.8413 18.1485 26.8077 18.3411 26.7694C18.5337 26.7311 18.7253 26.6881 18.9158 26.6404C19.1063 26.5927 19.2955 26.5403 19.4834 26.4833C19.6713 26.4263 19.8578 26.3647 20.0427 26.2985C20.2276 26.2324 20.4107 26.1617 20.5922 26.0866C20.7737 26.0114 20.9532 25.9318 21.1307 25.8479C21.3082 25.7639 21.4836 25.6756 21.6568 25.5831C21.83 25.4905 22.0008 25.3937 22.1692 25.2927C22.3377 25.1918 22.5035 25.0867 22.6668 24.9776C22.8301 24.8685 22.9907 24.7555 23.1484 24.6385C23.3061 24.5215 23.4609 24.4007 23.6127 24.2761C23.7645 24.1515 23.9132 24.0233 24.0587 23.8914C24.2042 23.7595 24.3464 23.6242 24.4853 23.4853C24.6242 23.3464 24.7595 23.2042 24.8914 23.0587C25.0233 22.9132 25.1515 22.7645 25.2761 22.6127C25.4007 22.4609 25.5215 22.3061 25.6385 22.1484C25.7555 21.9907 25.8685 21.8301 25.9776 21.6668C26.0867 21.5035 26.1918 21.3377 26.2927 21.1692C26.3937 21.0008 26.4905 20.83 26.5831 20.6568C26.6756 20.4836 26.7639 20.3082 26.8479 20.1307C26.9318 19.9532 27.0114 19.7737 27.0866 19.5922C27.1617 19.4107 27.2324 19.2276 27.2985 19.0427C27.3647 18.8578 27.4263 18.6713 27.4833 18.4834C27.5403 18.2955 27.5927 18.1063 27.6404 17.9158C27.6881 17.7253 27.7311 17.5337 27.7694 17.3411C27.8077 17.1485 27.8413 16.9551 27.8701 16.7608C27.8989 16.5665 27.9229 16.3717 27.9422 16.1762C27.9615 15.9807 27.9759 15.7849 27.9855 15.5888C27.9952 15.3927 28 15.1964 28 15C28 14.8036 27.9952 14.6073 27.9855 14.4112C27.9759 14.2151 27.9615 14.0193 27.9422 13.8238C27.9229 13.6283 27.8989 13.4335 27.8701 13.2392C27.8413 13.045 27.8077 12.8515 27.7694 12.6589C27.7311 12.4663 27.6881 12.2747 27.6404 12.0842C27.5927 11.8937 27.5403 11.7045 27.4833 11.5166C27.4263 11.3286 27.3647 11.1422 27.2985 10.9573C27.2324 10.7724 27.1617 10.5892 27.0866 10.4078C27.0114 10.2264 26.9318 10.0469 26.8479 9.86934C26.7639 9.69181 26.6756 9.51644 26.5831 9.34324C26.4905 9.17004 26.3937 8.99922 26.2927 8.83077C26.1918 8.66232 26.0867 8.49645 25.9776 8.33316C25.8685 8.16987 25.7555 8.00935 25.6385 7.85161C25.5215 7.69387 25.4007 7.53909 25.2761 7.38728C25.1515 7.23547 25.0233 7.0868 24.8914 6.94129C24.7595 6.79578 24.6242 6.65359 24.4853 6.51472C24.3464 6.37585 24.2042 6.24048 24.0587 6.10859C23.9132 5.9767 23.7645 5.84846 23.6127 5.72387C23.4609 5.59928 23.3061 5.4785 23.1484 5.36151C22.9907 5.24452 22.8301 5.13147 22.6668 5.02236C22.5035 4.91325 22.3377 4.80822 22.1692 4.70726C22.0008 4.60629 21.83 4.50952 21.6568 4.41694C21.4836 4.32437 21.3082 4.2361 21.1307 4.15213C20.9532 4.06816 20.7737 3.9886 20.5922 3.91345C20.4107 3.83829 20.2276 3.76763 20.0427 3.70147C19.8578 3.63531 19.6713 3.57372 19.4834 3.51672C19.2955 3.45971 19.1063 3.40734 18.9158 3.35963C18.7253 3.31191 18.5337 3.26889 18.3411 3.23058C18.1485 3.19226 17.9551 3.1587 17.7608 3.12988C17.5665 3.10107 17.3717 3.07703 17.1762 3.05778C16.9807 3.03853 16.7849 3.02409 16.5888 3.01445C16.3927 3.00482 16.1964 3 16 3C15.8036 3 15.6073 3.00482 15.4112 3.01445C15.2151 3.02409 15.0193 3.03853 14.8238 3.05778C14.6283 3.07703 14.4335 3.10107 14.2392 3.12988C14.045 3.1587 13.8515 3.19226 13.6589 3.23058C13.4663 3.26889 13.2747 3.31191 13.0842 3.35963C12.8937 3.40734 12.7045 3.45971 12.5166 3.51672C12.3286 3.57372 12.1422 3.63531 11.9573 3.70147C11.7724 3.76763 11.5892 3.83829 11.4078 3.91345C11.2264 3.9886 11.0469 4.06816 10.8693 4.15213C10.6918 4.2361 10.5164 4.32437 10.3432 4.41694C10.17 4.50952 9.99922 4.60629 9.83077 4.70726C9.66232 4.80822 9.49645 4.91325 9.33316 5.02236C9.16987 5.13147 9.00935 5.24452 8.85161 5.36151C8.69387 5.4785 8.53909 5.59928 8.38728 5.72387C8.23547 5.84846 8.0868 5.9767 7.94129 6.10859C7.79578 6.24048 7.65359 6.37585 7.51472 6.51472C7.37585 6.65359 7.24048 6.79578 7.10859 6.94129C6.9767 7.0868 6.84846 7.23547 6.72387 7.38728C6.59928 7.53909 6.4785 7.69387 6.36151 7.85161C6.24452 8.00935 6.13147 8.16987 6.02236 8.33316C5.91325 8.49645 5.80822 8.66232 5.70726 8.83077C5.60629 8.99922 5.50952 9.17004 5.41694 9.34324C5.32437 9.51644 5.2361 9.69181 5.15213 9.86934C5.06816 10.0469 4.9886 10.2264 4.91345 10.4078C4.83829 10.5892 4.76763 10.7724 4.70147 10.9573C4.63531 11.1422 4.57372 11.3286 4.51672 11.5166C4.45971 11.7045 4.40734 11.8937 4.35962 12.0842C4.31191 12.2747 4.26889 12.4663 4.23058 12.6589C4.19226 12.8515 4.1587 13.045 4.12988 13.2392C4.10107 13.4335 4.07703 13.6283 4.05778 13.8238C4.03853 14.0193 4.02409 14.2151 4.01445 14.4112C4.00482 14.6073 4 14.8036 4 15C4 15.3865 4.01864 15.7722 4.05591 16.157C4.09318 16.5417 4.14891 16.9238 4.2231 17.3032C4.2973 17.6825 4.3896 18.0574 4.50003 18.4279C4.61046 18.7984 4.73848 19.1626 4.88411 19.5207C5.02974 19.8788 5.19229 20.2291 5.37177 20.5714C5.55124 20.9138 5.7468 21.2467 5.95845 21.5702C6.1701 21.8937 6.39685 22.2062 6.6387 22.5077C6.88055 22.8093 7.13637 23.0985 7.40617 23.3753L6.42638 27.2945C6.23829 28.0468 6.94106 28.7177 7.68387 28.4948L13.526 26.7422C14.3417 26.9141 15.1664 27 16 27Z" fill="url(#paint0_linear_1174_5513)"/>
<path d="M13.5 15C14.3284 15 15 14.3284 15 13.5C15 12.6716 14.3284 12 13.5 12C12.6716 12 12 12.6716 12 13.5C12 14.3284 12.6716 15 13.5 15Z" fill="white"/>
<path d="M21.5 15C22.3284 15 23 14.3284 23 13.5C23 12.6716 22.3284 12 21.5 12C20.6716 12 20 12.6716 20 13.5C20 14.3284 20.6716 15 21.5 15Z" fill="white"/>
<path fill-rule="evenodd" clip-rule="evenodd" d="M13.1289 18C13.1674 18.1089 13.21 18.2161 13.2567 18.3216C13.3035 18.4272 13.3542 18.5308 13.4089 18.6325C13.4636 18.7342 13.5222 18.8336 13.5846 18.9308C13.6469 19.0279 13.7129 19.1226 13.7826 19.2146C13.8522 19.3067 13.9253 19.396 14.0018 19.4825C14.0784 19.5689 14.1581 19.6523 14.241 19.7326C14.324 19.813 14.4099 19.89 14.4988 19.9637C14.5876 20.0374 14.6792 20.1076 14.7735 20.1742C14.8677 20.2409 14.9644 20.3038 15.0636 20.3631C15.1627 20.4223 15.2639 20.4776 15.3673 20.529C15.4707 20.5804 15.5759 20.6278 15.6829 20.6711C15.7899 20.7145 15.8984 20.7536 16.0085 20.7886C16.1185 20.8236 16.2297 20.8543 16.3421 20.8807C16.4545 20.9071 16.5678 20.9291 16.6819 20.9468C16.796 20.9645 16.9106 20.9778 17.0257 20.9867C17.1408 20.9956 17.2561 21 17.3716 21C17.487 21 17.6023 20.9956 17.7174 20.9867C17.8325 20.9778 17.9471 20.9645 18.0612 20.9468C18.1753 20.9291 18.2886 20.9071 18.401 20.8807C18.5134 20.8543 18.6246 20.8236 18.7346 20.7886C18.8447 20.7536 18.9532 20.7145 19.0602 20.6711C19.1672 20.6278 19.2724 20.5804 19.3758 20.529C19.4792 20.4776 19.5804 20.4223 19.6795 20.3631C19.7787 20.3038 19.8753 20.2409 19.9696 20.1742C20.0639 20.1076 20.1555 20.0374 20.2443 19.9637C20.3332 19.89 20.4191 19.813 20.5021 19.7326C20.585 19.6523 20.6647 19.5689 20.7413 19.4825C20.8178 19.396 20.8909 19.3067 20.9605 19.2146C21.0302 19.1226 21.0962 19.0279 21.1585 18.9308C21.2209 18.8336 21.2795 18.7342 21.3342 18.6325C21.3889 18.5308 21.4396 18.4272 21.4864 18.3216C21.5331 18.2161 21.5757 18.1089 21.6142 18H13.1289Z" fill="white"/>
<defs>
<linearGradient id="paint0_linear_1174_5513" x1="17.3289" y1="24.5721" x2="3.32221" y2="23.9096" gradientUnits="userSpaceOnUse">
<stop stop-color="#00C892"/>
<stop offset="1" stop-color="#A5E9BC"/>
</linearGradient>
</defs>
</svg>
